<mxfile host="app.diagrams.net" modified="2021-01-13T05:49:49.260Z" agent="5.0 (Windows NT 6.1; Win64; x64) AppleWebKit/537.36 (KHTML, like Gecko) Chrome/87.0.4280.88 Safari/537.36" etag="Wz0wFYgvMK66sACjC1_L" version="14.1.9" type="github">
  <diagram id="prtHgNgQTEPvFCAcTncT" name="Page-1">
    <mxGraphModel dx="1422" dy="745" grid="1" gridSize="10" guides="1" tooltips="1" connect="1" arrows="1" fold="1" page="1" pageScale="1" pageWidth="827" pageHeight="1169" math="0" shadow="0">
      <root>
        <mxCell id="0" />
        <mxCell id="1" parent="0" />
        <mxCell id="dNxyNK7c78bLwvsdeMH5-11" value="接口脚本生成用例生成工具" style="swimlane;html=1;startSize=40;horizontal=1;containerType=tree;glass=0;" parent="1" vertex="1">
          <mxGeometry x="160" y="80" width="1150" height="400" as="geometry" />
        </mxCell>
        <mxCell id="dMQOUxbf0CDsZa4WcHc--18" value="" style="shape=ext;double=1;rounded=1;whiteSpace=wrap;html=1;fillColor=#d5e8d4;strokeColor=#82b366;" vertex="1" parent="dNxyNK7c78bLwvsdeMH5-11">
          <mxGeometry x="28" y="60" width="180" height="310" as="geometry" />
        </mxCell>
        <mxCell id="dMQOUxbf0CDsZa4WcHc--19" value="&lt;b&gt;swagger&lt;/b&gt;" style="rounded=0;whiteSpace=wrap;html=1;" vertex="1" parent="dNxyNK7c78bLwvsdeMH5-11">
          <mxGeometry x="58" y="110" width="120" height="30" as="geometry" />
        </mxCell>
        <mxCell id="dMQOUxbf0CDsZa4WcHc--20" value="&lt;font style=&quot;vertical-align: inherit&quot;&gt;&lt;font style=&quot;vertical-align: inherit&quot;&gt;&lt;font style=&quot;vertical-align: inherit&quot;&gt;&lt;font style=&quot;vertical-align: inherit&quot;&gt;&lt;b&gt;wiki&lt;/b&gt;&lt;/font&gt;&lt;/font&gt;&lt;/font&gt;&lt;/font&gt;" style="rounded=0;whiteSpace=wrap;html=1;" vertex="1" parent="dNxyNK7c78bLwvsdeMH5-11">
          <mxGeometry x="58" y="190" width="120" height="30" as="geometry" />
        </mxCell>
        <mxCell id="dMQOUxbf0CDsZa4WcHc--21" value="&lt;font style=&quot;vertical-align: inherit&quot;&gt;&lt;font style=&quot;vertical-align: inherit&quot;&gt;&lt;font style=&quot;vertical-align: inherit&quot;&gt;&lt;font style=&quot;vertical-align: inherit&quot;&gt;&lt;b&gt;...&lt;/b&gt;&lt;/font&gt;&lt;/font&gt;&lt;/font&gt;&lt;/font&gt;" style="rounded=0;whiteSpace=wrap;html=1;" vertex="1" parent="dNxyNK7c78bLwvsdeMH5-11">
          <mxGeometry x="58" y="260" width="120" height="30" as="geometry" />
        </mxCell>
        <mxCell id="dMQOUxbf0CDsZa4WcHc--22" value="&lt;font style=&quot;vertical-align: inherit&quot;&gt;&lt;font style=&quot;vertical-align: inherit&quot;&gt;数据源&lt;/font&gt;&lt;/font&gt;" style="text;html=1;strokeColor=none;fillColor=none;align=center;verticalAlign=middle;whiteSpace=wrap;rounded=0;" vertex="1" parent="dNxyNK7c78bLwvsdeMH5-11">
          <mxGeometry x="98" y="70" width="40" height="20" as="geometry" />
        </mxCell>
        <mxCell id="dMQOUxbf0CDsZa4WcHc--49" value="" style="shape=ext;double=1;rounded=1;whiteSpace=wrap;html=1;fillColor=#b0e3e6;strokeColor=#0e8088;" vertex="1" parent="dNxyNK7c78bLwvsdeMH5-11">
          <mxGeometry x="910" y="70" width="180" height="310" as="geometry" />
        </mxCell>
        <mxCell id="dMQOUxbf0CDsZa4WcHc--50" value="&lt;b&gt;接口工程脚本&lt;/b&gt;" style="rounded=0;whiteSpace=wrap;html=1;" vertex="1" parent="dNxyNK7c78bLwvsdeMH5-11">
          <mxGeometry x="938" y="120" width="120" height="30" as="geometry" />
        </mxCell>
        <mxCell id="dMQOUxbf0CDsZa4WcHc--51" value="&lt;font style=&quot;vertical-align: inherit&quot;&gt;&lt;font style=&quot;vertical-align: inherit&quot;&gt;&lt;font style=&quot;vertical-align: inherit&quot;&gt;&lt;font style=&quot;vertical-align: inherit&quot;&gt;&lt;b&gt;postman导入文本&lt;/b&gt;&lt;/font&gt;&lt;/font&gt;&lt;/font&gt;&lt;/font&gt;" style="rounded=0;whiteSpace=wrap;html=1;" vertex="1" parent="dNxyNK7c78bLwvsdeMH5-11">
          <mxGeometry x="938" y="200" width="120" height="30" as="geometry" />
        </mxCell>
        <mxCell id="dMQOUxbf0CDsZa4WcHc--52" value="&lt;font style=&quot;vertical-align: inherit&quot;&gt;&lt;font style=&quot;vertical-align: inherit&quot;&gt;&lt;font style=&quot;vertical-align: inherit&quot;&gt;&lt;font style=&quot;vertical-align: inherit&quot;&gt;&lt;b&gt;接口测试用例&lt;/b&gt;&lt;/font&gt;&lt;/font&gt;&lt;/font&gt;&lt;/font&gt;" style="rounded=0;whiteSpace=wrap;html=1;" vertex="1" parent="dNxyNK7c78bLwvsdeMH5-11">
          <mxGeometry x="938" y="270" width="120" height="30" as="geometry" />
        </mxCell>
        <mxCell id="dMQOUxbf0CDsZa4WcHc--53" value="&lt;font style=&quot;vertical-align: inherit&quot;&gt;&lt;font style=&quot;vertical-align: inherit&quot;&gt;生成&lt;/font&gt;&lt;/font&gt;" style="text;html=1;strokeColor=none;fillColor=none;align=center;verticalAlign=middle;whiteSpace=wrap;rounded=0;" vertex="1" parent="dNxyNK7c78bLwvsdeMH5-11">
          <mxGeometry x="978" y="80" width="40" height="20" as="geometry" />
        </mxCell>
        <mxCell id="dMQOUxbf0CDsZa4WcHc--70" value="" style="shape=ext;double=1;rounded=1;whiteSpace=wrap;html=1;fillColor=#dae8fc;strokeColor=#6c8ebf;" vertex="1" parent="dNxyNK7c78bLwvsdeMH5-11">
          <mxGeometry x="560" y="222.5" width="180" height="160" as="geometry" />
        </mxCell>
        <mxCell id="dMQOUxbf0CDsZa4WcHc--71" value="&lt;b&gt;脚本工程模板&lt;/b&gt;" style="rounded=0;whiteSpace=wrap;html=1;" vertex="1" parent="dNxyNK7c78bLwvsdeMH5-11">
          <mxGeometry x="588" y="252.5" width="120" height="30" as="geometry" />
        </mxCell>
        <mxCell id="dMQOUxbf0CDsZa4WcHc--72" value="&lt;font style=&quot;vertical-align: inherit&quot;&gt;&lt;font style=&quot;vertical-align: inherit&quot;&gt;&lt;font style=&quot;vertical-align: inherit&quot;&gt;&lt;font style=&quot;vertical-align: inherit&quot;&gt;&lt;b&gt;postman模板&lt;/b&gt;&lt;/font&gt;&lt;/font&gt;&lt;/font&gt;&lt;/font&gt;" style="rounded=0;whiteSpace=wrap;html=1;" vertex="1" parent="dNxyNK7c78bLwvsdeMH5-11">
          <mxGeometry x="588" y="292.5" width="120" height="30" as="geometry" />
        </mxCell>
        <mxCell id="dMQOUxbf0CDsZa4WcHc--73" value="&lt;font style=&quot;vertical-align: inherit&quot;&gt;&lt;font style=&quot;vertical-align: inherit&quot;&gt;&lt;font style=&quot;vertical-align: inherit&quot;&gt;&lt;font style=&quot;vertical-align: inherit&quot;&gt;&lt;b&gt;excel用例模板&lt;/b&gt;&lt;/font&gt;&lt;/font&gt;&lt;/font&gt;&lt;/font&gt;" style="rounded=0;whiteSpace=wrap;html=1;" vertex="1" parent="dNxyNK7c78bLwvsdeMH5-11">
          <mxGeometry x="588" y="332.5" width="120" height="30" as="geometry" />
        </mxCell>
        <mxCell id="dMQOUxbf0CDsZa4WcHc--74" value="&lt;font style=&quot;vertical-align: inherit&quot;&gt;&lt;font style=&quot;vertical-align: inherit&quot;&gt;模板&lt;/font&gt;&lt;/font&gt;" style="text;html=1;strokeColor=none;fillColor=none;align=center;verticalAlign=middle;whiteSpace=wrap;rounded=0;" vertex="1" parent="dNxyNK7c78bLwvsdeMH5-11">
          <mxGeometry x="619" y="232.5" width="58" height="20" as="geometry" />
        </mxCell>
        <mxCell id="dMQOUxbf0CDsZa4WcHc--88" value="" style="shape=ext;double=1;rounded=1;whiteSpace=wrap;html=1;fillColor=#e1d5e7;strokeColor=#9673a6;" vertex="1" parent="dNxyNK7c78bLwvsdeMH5-11">
          <mxGeometry x="560" y="47.5" width="180" height="160" as="geometry" />
        </mxCell>
        <mxCell id="dMQOUxbf0CDsZa4WcHc--89" value="&lt;b&gt;脚本工程生成&lt;/b&gt;" style="rounded=0;whiteSpace=wrap;html=1;" vertex="1" parent="dNxyNK7c78bLwvsdeMH5-11">
          <mxGeometry x="582" y="77.5" width="128" height="30" as="geometry" />
        </mxCell>
        <mxCell id="dMQOUxbf0CDsZa4WcHc--90" value="&lt;font style=&quot;vertical-align: inherit&quot;&gt;&lt;font style=&quot;vertical-align: inherit&quot;&gt;&lt;font style=&quot;vertical-align: inherit&quot;&gt;&lt;font style=&quot;vertical-align: inherit&quot;&gt;&lt;b&gt;postman接口生成&lt;/b&gt;&lt;/font&gt;&lt;/font&gt;&lt;/font&gt;&lt;/font&gt;" style="rounded=0;whiteSpace=wrap;html=1;" vertex="1" parent="dNxyNK7c78bLwvsdeMH5-11">
          <mxGeometry x="582" y="117.5" width="132" height="30" as="geometry" />
        </mxCell>
        <mxCell id="dMQOUxbf0CDsZa4WcHc--91" value="&lt;font style=&quot;vertical-align: inherit&quot;&gt;&lt;font style=&quot;vertical-align: inherit&quot;&gt;&lt;font style=&quot;vertical-align: inherit&quot;&gt;&lt;font style=&quot;vertical-align: inherit&quot;&gt;&lt;b&gt;excel接口测试用例生成&lt;/b&gt;&lt;/font&gt;&lt;/font&gt;&lt;/font&gt;&lt;/font&gt;" style="rounded=0;whiteSpace=wrap;html=1;" vertex="1" parent="dNxyNK7c78bLwvsdeMH5-11">
          <mxGeometry x="582" y="155" width="132" height="30" as="geometry" />
        </mxCell>
        <mxCell id="dMQOUxbf0CDsZa4WcHc--92" value="&lt;font style=&quot;vertical-align: inherit&quot;&gt;&lt;font style=&quot;vertical-align: inherit&quot;&gt;规则&lt;/font&gt;&lt;/font&gt;" style="text;html=1;strokeColor=none;fillColor=none;align=center;verticalAlign=middle;whiteSpace=wrap;rounded=0;" vertex="1" parent="dNxyNK7c78bLwvsdeMH5-11">
          <mxGeometry x="619" y="57.5" width="58" height="20" as="geometry" />
        </mxCell>
        <mxCell id="dMQOUxbf0CDsZa4WcHc--93" value="" style="endArrow=classic;html=1;" edge="1" parent="dNxyNK7c78bLwvsdeMH5-11">
          <mxGeometry width="50" height="50" relative="1" as="geometry">
            <mxPoint x="450" y="205" as="sourcePoint" />
            <mxPoint x="560" y="140" as="targetPoint" />
          </mxGeometry>
        </mxCell>
        <mxCell id="dMQOUxbf0CDsZa4WcHc--94" value="" style="endArrow=classic;html=1;entryX=-0.011;entryY=0.397;entryDx=0;entryDy=0;entryPerimeter=0;" edge="1" parent="dNxyNK7c78bLwvsdeMH5-11" target="dMQOUxbf0CDsZa4WcHc--70">
          <mxGeometry width="50" height="50" relative="1" as="geometry">
            <mxPoint x="450" y="205" as="sourcePoint" />
            <mxPoint x="550" y="270" as="targetPoint" />
          </mxGeometry>
        </mxCell>
        <mxCell id="dMQOUxbf0CDsZa4WcHc--95" value="输入" style="text;html=1;strokeColor=none;fillColor=none;align=center;verticalAlign=middle;whiteSpace=wrap;rounded=0;" vertex="1" parent="dNxyNK7c78bLwvsdeMH5-11">
          <mxGeometry x="480" y="140" width="40" height="20" as="geometry" />
        </mxCell>
        <mxCell id="dMQOUxbf0CDsZa4WcHc--96" value="输入" style="text;html=1;strokeColor=none;fillColor=none;align=center;verticalAlign=middle;whiteSpace=wrap;rounded=0;" vertex="1" parent="dNxyNK7c78bLwvsdeMH5-11">
          <mxGeometry x="480" y="255" width="40" height="20" as="geometry" />
        </mxCell>
        <mxCell id="dMQOUxbf0CDsZa4WcHc--97" value="获取" style="text;html=1;strokeColor=none;fillColor=none;align=center;verticalAlign=middle;whiteSpace=wrap;rounded=0;" vertex="1" parent="dNxyNK7c78bLwvsdeMH5-11">
          <mxGeometry x="220" y="185" width="40" height="20" as="geometry" />
        </mxCell>
        <mxCell id="dMQOUxbf0CDsZa4WcHc--100" value="" style="endArrow=none;dashed=1;html=1;" edge="1" parent="dNxyNK7c78bLwvsdeMH5-11">
          <mxGeometry width="50" height="50" relative="1" as="geometry">
            <mxPoint x="240" y="400" as="sourcePoint" />
            <mxPoint x="240" y="41" as="targetPoint" />
          </mxGeometry>
        </mxCell>
        <mxCell id="dMQOUxbf0CDsZa4WcHc--101" value="" style="endArrow=classic;html=1;" edge="1" parent="dNxyNK7c78bLwvsdeMH5-11">
          <mxGeometry width="50" height="50" relative="1" as="geometry">
            <mxPoint x="210" y="210" as="sourcePoint" />
            <mxPoint x="280" y="210" as="targetPoint" />
          </mxGeometry>
        </mxCell>
        <mxCell id="dMQOUxbf0CDsZa4WcHc--103" value="" style="shape=ext;double=1;rounded=1;whiteSpace=wrap;html=1;fillColor=#fff2cc;strokeColor=#d6b656;" vertex="1" parent="dNxyNK7c78bLwvsdeMH5-11">
          <mxGeometry x="283.5" y="60" width="180" height="310" as="geometry" />
        </mxCell>
        <mxCell id="dMQOUxbf0CDsZa4WcHc--104" value="&lt;b&gt;json&lt;/b&gt;" style="rounded=0;whiteSpace=wrap;html=1;" vertex="1" parent="dNxyNK7c78bLwvsdeMH5-11">
          <mxGeometry x="313.5" y="110" width="120" height="30" as="geometry" />
        </mxCell>
        <mxCell id="dMQOUxbf0CDsZa4WcHc--105" value="&lt;font style=&quot;vertical-align: inherit&quot;&gt;&lt;font style=&quot;vertical-align: inherit&quot;&gt;&lt;font style=&quot;vertical-align: inherit&quot;&gt;&lt;font style=&quot;vertical-align: inherit&quot;&gt;&lt;b&gt;html&lt;/b&gt;&lt;/font&gt;&lt;/font&gt;&lt;/font&gt;&lt;/font&gt;" style="rounded=0;whiteSpace=wrap;html=1;" vertex="1" parent="dNxyNK7c78bLwvsdeMH5-11">
          <mxGeometry x="313.5" y="190" width="120" height="30" as="geometry" />
        </mxCell>
        <mxCell id="dMQOUxbf0CDsZa4WcHc--106" value="&lt;font style=&quot;vertical-align: inherit&quot;&gt;&lt;font style=&quot;vertical-align: inherit&quot;&gt;&lt;font style=&quot;vertical-align: inherit&quot;&gt;&lt;font style=&quot;vertical-align: inherit&quot;&gt;&lt;b&gt;...&lt;/b&gt;&lt;/font&gt;&lt;/font&gt;&lt;/font&gt;&lt;/font&gt;" style="rounded=0;whiteSpace=wrap;html=1;" vertex="1" parent="dNxyNK7c78bLwvsdeMH5-11">
          <mxGeometry x="313.5" y="260" width="120" height="30" as="geometry" />
        </mxCell>
        <mxCell id="dMQOUxbf0CDsZa4WcHc--107" value="&lt;font style=&quot;vertical-align: inherit&quot;&gt;&lt;font style=&quot;vertical-align: inherit&quot;&gt;可解析文本&lt;/font&gt;&lt;/font&gt;" style="text;html=1;strokeColor=none;fillColor=none;align=center;verticalAlign=middle;whiteSpace=wrap;rounded=0;" vertex="1" parent="dNxyNK7c78bLwvsdeMH5-11">
          <mxGeometry x="342" y="70" width="63.5" height="20" as="geometry" />
        </mxCell>
        <mxCell id="dMQOUxbf0CDsZa4WcHc--159" value="" style="endArrow=none;dashed=1;html=1;" edge="1" parent="dNxyNK7c78bLwvsdeMH5-11">
          <mxGeometry width="50" height="50" relative="1" as="geometry">
            <mxPoint x="830" y="400" as="sourcePoint" />
            <mxPoint x="830" y="41" as="targetPoint" />
          </mxGeometry>
        </mxCell>
        <mxCell id="dMQOUxbf0CDsZa4WcHc--160" value="" style="shape=mxgraph.arrows.arrow_right;html=1;verticalLabelPosition=bottom;verticalAlign=top;strokeWidth=2;strokeColor=#000000;" vertex="1" parent="dNxyNK7c78bLwvsdeMH5-11">
          <mxGeometry x="751" y="182.5" width="150" height="70" as="geometry" />
        </mxCell>
        <mxCell id="dMQOUxbf0CDsZa4WcHc--161" value="正交/单接口生成" style="whiteSpace=wrap;html=1;shape=mxgraph.basic.roundRectCallout;dx=30;dy=15;size=5;boundedLbl=1;" vertex="1" parent="dNxyNK7c78bLwvsdeMH5-11">
          <mxGeometry x="751" y="60" width="100" height="60" as="geometry" />
        </mxCell>
      </root>
    </mxGraphModel>
  </diagram>
</mxfile>
